<svg id="Layer_1" data-name="Layer 1" xmlns="http://www.w3.org/2000/svg" viewBox="0 0 340.16 340.16"><defs><style>.cls-1{fill:#71cfeb;}</style></defs><title>Simbolo_Negativa_sf</title><path class="cls-1" d="M170.06,241.07l-21.29,21.28a93.57,93.57,0,0,1-13.05-4.06l34.36-34.36,8.56,8.57,1.32,1.34,24.45,24.46a93.57,93.57,0,0,1-13,4.06Z"/><path class="cls-1" d="M117.54,248.65a94.32,94.32,0,0,1-9.61-7.51l53.59-53.59h0l8.57-8.58,8.57,8.57,1.32,1.36,52.26,52.25a94.44,94.44,0,0,1-9.62,7.51l-52.53-52.54Z"/><path class="cls-1" d="M170.07,151.12,94.65,226.54a92.14,92.14,0,0,1-5.54-8.48c-.61-1.06-1.21-2.12-1.78-3.2A93.3,93.3,0,0,1,82.84,205H99.08l19.67-19.67H77.64a96,96,0,0,1-1-12.13h54.29l19.67-19.67H78.28a93.48,93.48,0,0,1,3.2-12.12h81.2l7.4-7.41,7.4,7.41h81.2a92.69,92.69,0,0,1,3.19,12.12H189.58l19.67,19.67h54.32a96.27,96.27,0,0,1-1.05,12.13H221.38L241.05,205h16.26a91.7,91.7,0,0,1-4.5,9.89c-.56,1.07-1.16,2.13-1.76,3.18a96.12,96.12,0,0,1-5.55,8.5Z"/><path class="cls-1" d="M90.82,121.72a94.1,94.1,0,0,1,9-12.12H240.31a93.25,93.25,0,0,1,9,12.12Z"/><path class="cls-1" d="M124,89.93a93.51,93.51,0,0,1,92.12,0Z"/></svg>