<svg
    width="44"
    height="47"
    viewBox="0 0 44 47"
    fill="none"
    xmlns="http://www.w3.org/2000/svg"
>
<path
        d="M13.3333 45.9167C14.4609 45.9167 15.375 45.0026 15.375 43.875C15.375 42.7474 14.4609 41.8333 13.3333 41.8333C12.2057 41.8333 11.2916 42.7474 11.2916 43.875C11.2916 45.0026 12.2057 45.9167 13.3333 45.9167Z"
        stroke="white"
        stroke-width="2"
        stroke-linecap="round"
        stroke-linejoin="round"
    />
<path
        d="M35.7917 45.9167C36.9192 45.9167 37.8333 45.0026 37.8333 43.875C37.8333 42.7474 36.9192 41.8333 35.7917 41.8333C34.6641 41.8333 33.75 42.7474 33.75 43.875C33.75 45.0026 34.6641 45.9167 35.7917 45.9167Z"
        stroke="white"
        stroke-width="2"
        stroke-linecap="round"
        stroke-linejoin="round"
    />
<path
        d="M1.18542 5.18541H5.26876L10.6996 30.5429C10.8988 31.4716 11.4155 32.3018 12.1608 32.8905C12.9061 33.4793 13.8334 33.7899 14.7829 33.7687H34.7504C35.6797 33.7672 36.5807 33.4488 37.3046 32.866C38.0285 32.2832 38.5319 31.4709 38.7317 30.5633L42.1004 15.3937H7.45334"
        stroke="white"
        stroke-width="2"
        stroke-linecap="round"
        stroke-linejoin="round"
    />
<path
        d="M24.4985 11.5459L21.4649 16C21.1532 15.5757 11.7632 15.9559 11.4999 15.5C11.4049 15.3348 14.5 15.6667 9.94126 16C16.5 14.9861 10.4 16.0252 10.1968 15.5H13.5L16.5 16H9.94126C9.8494 15.3739 9.95318 15.6188 9.94127 14.9861H18.4001L21.4649 11.9214H10.1968C10.3206 11.2815 10.4871 10.6506 10.6954 10.033H23.3471L24.5001 8.87842L25.6531 10.033L38.3047 10.033C38.5128 10.6505 38.6789 11.2814 38.8018 11.9214L27.5001 11.9214L30.6031 14.9861L39.0667 14.9861C39.0521 15.6189 38.8961 15.3741 38.8018 16L32.6599 15.8752L34.0001 16H35.5001C35.2971 16.5271 32.5001 15.5182 32.5001 16C25.5001 13 43.5001 16.8761 30.0001 16C29.7354 16.4564 29.3115 15.5741 29.0001 16L24.4985 11.5459Z"
        fill="white"
    />
<path
        d="M12.1506 6.96507C12.5667 6.29906 13.0357 5.66756 13.5529 5.07666L35.4425 5.07666C35.9602 5.6672 36.4292 6.29873 36.8448 6.96507L12.1506 6.96507Z"
        fill="white"
    />
<path
        d="M17.3203 2.01191C19.5093 0.772987 21.9816 0.121841 24.4969 0.121841C27.0121 0.121841 29.4845 0.772987 31.6734 2.01191L17.3203 2.01191Z"
        fill="white"
    />
</svg>
